<?xml version="1.0" encoding="utf-8"?>
<!-- Generator: Adobe Illustrator 22.0.1, SVG Export Plug-In . SVG Version: 6.00 Build 0)  -->
<!DOCTYPE svg PUBLIC "-//W3C//DTD SVG 1.1//EN" "http://www.w3.org/Graphics/SVG/1.1/DTD/svg11.dtd" [
	<!ENTITY ns_extend "http://ns.adobe.com/Extensibility/1.0/">
	<!ENTITY ns_ai "http://ns.adobe.com/AdobeIllustrator/10.0/">
	<!ENTITY ns_graphs "http://ns.adobe.com/Graphs/1.0/">
	<!ENTITY ns_vars "http://ns.adobe.com/Variables/1.0/">
	<!ENTITY ns_imrep "http://ns.adobe.com/ImageReplacement/1.0/">
	<!ENTITY ns_sfw "http://ns.adobe.com/SaveForWeb/1.0/">
	<!ENTITY ns_custom "http://ns.adobe.com/GenericCustomNamespace/1.0/">
	<!ENTITY ns_adobe_xpath "http://ns.adobe.com/XPath/1.0/">
]>
<svg version="1.1" id="Layer_1" xmlns:x="&ns_extend;" xmlns:i="&ns_ai;" xmlns:graph="&ns_graphs;"
	 xmlns="http://www.w3.org/2000/svg" xmlns:xlink="http://www.w3.org/1999/xlink" x="0px" y="0px" viewBox="0 0 300 79.6"
	 style="enable-background:new 0 0 300 79.6;" xml:space="preserve">
<style type="text/css">
	.st0{fill:#F9F7F7;}
</style>
<metadata>
	<sfw  xmlns="&ns_sfw;">
		<slices></slices>
		<sliceSourceBounds  bottomLeftOrigin="true" height="73.4" width="293.7" x="3.4" y="-337.3"></sliceSourceBounds>
	</sfw>
</metadata>
<g>
	<path class="st0" d="M75.7,39.8c0,6.9-3.4,10.3-10.3,10.3H3.4V29.5h46.5v-5.2H3.4V3.7h61.9c6.9,0,10.3,3.4,10.3,10.3V39.8z"/>
	<path class="st0" d="M110.1,50.1H84.3V3.7h25.8V50.1z"/>
	<path class="st0" d="M216.4,50.1h-25.8V24.4h-10.3v25.8h-25.8V24.4h-10.3v25.8h-25.8V14c0-3.2,0.9-5.7,2.7-7.5
		c1.8-1.8,4.3-2.8,7.6-2.8h77.4c6.9,0,10.3,3.4,10.3,10.3V50.1z"/>
	<path class="st0" d="M297.1,50.1h-61.9c-1.3,0-2.5-0.3-3.8-0.9c-1.2-0.6-2.3-1.3-3.3-2.3c-1-1-1.8-2.1-2.4-3.3
		c-0.6-1.3-0.9-2.5-0.9-3.8V14c0-1.4,0.3-2.8,0.9-4c0.6-1.3,1.3-2.3,2.3-3.3c1-0.9,2-1.7,3.3-2.2c1.2-0.5,2.5-0.8,3.9-0.8h61.9v20.7
		h-46.4v5.2h46.4V50.1z"/>
	<path class="st0" d="M5.2,77V53.8h4.3c3.2,0,5.9,1.1,8.2,3.4c2.3,2.3,3.4,5,3.4,8.2c0,3.2-1.1,5.9-3.4,8.2c-2.3,2.3-5,3.4-8.2,3.4
		H5.2z M8.7,57.3v16.2h0.7c2.2,0,4.1-0.8,5.7-2.4c1.6-1.6,2.4-3.5,2.4-5.7c0-2.2-0.8-4.1-2.4-5.7c-1.6-1.6-3.5-2.4-5.7-2.4H8.7z"/>
	<path class="st0" d="M28.3,70.5V77h-3.5V53.8h3.5v0c0.2,0,0.4,0,0.6,0c2.2,0,4.1,0.8,5.6,2.5c1.5,1.6,2.3,3.6,2.3,5.9
		c0,2.3-0.8,4.3-2.3,5.9c-0.4,0.4-0.8,0.8-1.2,1.1l4.2,7.9h-3.8l-3.5-6.6c-0.4,0.1-0.9,0.1-1.3,0.1C28.8,70.6,28.6,70.6,28.3,70.5z
		 M28.3,57.3v9.8c0.2,0,0.4,0,0.6,0c1.3,0,2.4-0.5,3.3-1.5c0.9-1,1.4-2.1,1.4-3.5c0-1.4-0.5-2.5-1.4-3.5s-2-1.4-3.3-1.4
		C28.8,57.2,28.6,57.3,28.3,57.3z"/>
	<path class="st0" d="M41.4,53.8h3.5V77h-3.5V53.8z"/>
	<path class="st0" d="M59.6,77.1h-3.1l-7.8-23.3h3.9L58,70.1l5.4-16.4h3.9L59.6,77.1z"/>
	<path class="st0" d="M71.2,53.8h10.7v3.5h-7.2v6.3h7.2v3.5h-7.2v6.3h7.2V77H71.2V53.8z"/>
	<path class="st0" d="M85.7,64.4h10.4v2.7H85.7V64.4z"/>
	<path class="st0" d="M100,53.8h3.5V77H100V53.8z"/>
	<path class="st0" d="M119,77l-8.2-14.4V77h-3.5V53.8h3.2l7.6,14v-14h3.5V77H119z"/>
	<path class="st0" d="M148.6,53.8h2.9v23.3H148V65.8l-4,10.6l-4-10.8V77h-3.5V53.8h2.9l4.6,12.5L148.6,53.8z"/>
	<path class="st0" d="M165.9,69.9V53.7h3.5v16.2c0,2-0.7,3.6-2.1,5c-1.4,1.4-3,2.1-5,2.1c-2,0-3.6-0.7-5-2.1c-1.4-1.4-2.1-3-2.1-5
		V53.7h3.5v16.2c0,1,0.3,1.8,1,2.5s1.5,1,2.5,1c1,0,1.8-0.3,2.5-1C165.6,71.8,165.9,70.9,165.9,69.9z"/>
	<path class="st0" d="M178.4,77.1c-1,0-1.9-0.1-2.7-0.4c-0.8-0.3-1.6-0.7-2.5-1.4V71c0.5,0.6,1,1,1.3,1.2c0.3,0.2,0.7,0.4,1.1,0.7
		c0.4,0.2,0.9,0.4,1.4,0.6s1,0.2,1.5,0.2c1,0,1.9-0.4,2.6-1.1s1-1.6,1-2.6c0-0.8-0.3-1.5-0.9-2c-0.6-0.5-1.5-1.1-2.8-1.7
		c-0.8-0.4-1.4-0.8-2-1.1c-0.5-0.3-1.1-0.7-1.5-1.2c-0.5-0.5-0.9-1.1-1.2-1.7s-0.5-1.5-0.5-2.4c0-0.9,0.3-1.7,0.6-2.5s0.9-1.4,1.6-2
		c0.7-0.6,1.4-1,2.3-1.3c0.8-0.3,1.7-0.5,2.7-0.5c0.7,0,1.3,0.1,1.9,0.3c0.6,0.2,1.2,0.5,2,0.9v3.6c-0.4-0.3-0.7-0.5-0.9-0.5
		c-0.2-0.1-0.4-0.2-0.7-0.3c-0.3-0.2-0.6-0.3-1-0.4c-0.4-0.1-0.8-0.2-1.3-0.2c-1,0-1.8,0.3-2.5,0.9c-0.7,0.6-1,1.3-1,2.1
		c0,0.8,0.3,1.4,0.9,1.8c0.6,0.5,1.4,1,2.7,1.5c0.8,0.4,1.5,0.8,2.1,1.1s1.1,0.7,1.6,1.2c0.5,0.5,0.9,1.1,1.2,1.8s0.5,1.6,0.5,2.6
		c0,0.9-0.2,1.8-0.6,2.6s-0.9,1.6-1.6,2.2s-1.5,1.1-2.4,1.5S179.3,77.1,178.4,77.1z"/>
	<path class="st0" d="M189.5,53.8h3.5V77h-3.5V53.8z"/>
	<path class="st0" d="M213.2,72.2v4c-1.4,0.5-2.8,0.8-4.4,0.8c-1.7,0-3.2-0.3-4.6-0.9s-2.7-1.4-3.8-2.5s-1.9-2.3-2.6-3.7
		c-0.6-1.4-0.9-2.9-0.9-4.5c0-1.6,0.3-3.1,0.9-4.6s1.5-2.7,2.6-3.7c1.1-1,2.3-1.9,3.8-2.5s3-0.9,4.6-0.9c1.6,0,3,0.3,4.4,0.8v4.1
		c-0.4-0.2-0.8-0.5-1.2-0.6c-1-0.4-2-0.6-3.2-0.6c-1.1,0-2.2,0.2-3.2,0.6c-1,0.4-1.8,1-2.6,1.7s-1.3,1.6-1.7,2.6s-0.6,2-0.6,3.2
		s0.2,2.2,0.6,3.2c0.4,1,1,1.8,1.7,2.6c0.7,0.7,1.6,1.3,2.6,1.7s2,0.6,3.2,0.6c1.1,0,2.2-0.2,3.2-0.6
		C212.4,72.6,212.8,72.4,213.2,72.2z"/>
	<path class="st0" d="M244.3,72.2v4c-1.4,0.5-2.8,0.8-4.4,0.8c-1.7,0-3.2-0.3-4.6-0.9s-2.7-1.4-3.8-2.5s-1.9-2.3-2.6-3.7
		c-0.6-1.4-0.9-2.9-0.9-4.5c0-1.6,0.3-3.1,0.9-4.6s1.5-2.7,2.6-3.7c1.1-1,2.3-1.9,3.8-2.5s3-0.9,4.6-0.9c1.6,0,3,0.3,4.4,0.8v4.1
		c-0.4-0.2-0.8-0.5-1.2-0.6c-1-0.4-2-0.6-3.2-0.6c-1.1,0-2.2,0.2-3.2,0.6c-1,0.4-1.8,1-2.6,1.7s-1.3,1.6-1.7,2.6s-0.6,2-0.6,3.2
		s0.2,2.2,0.6,3.2c0.4,1,1,1.8,1.7,2.6c0.7,0.7,1.6,1.3,2.6,1.7s2,0.6,3.2,0.6c1.1,0,2.2-0.2,3.2-0.6
		C243.5,72.6,243.9,72.4,244.3,72.2z"/>
	<path class="st0" d="M248.1,53.8h3.5v19.7h7.3V77h-10.8V53.8z"/>
	<path class="st0" d="M273.3,69.9V53.7h3.5v16.2c0,2-0.7,3.6-2.1,5c-1.4,1.4-3,2.1-5,2.1c-2,0-3.6-0.7-5-2.1c-1.4-1.4-2.1-3-2.1-5
		V53.7h3.5v16.2c0,1,0.3,1.8,1,2.5s1.5,1,2.5,1c1,0,1.8-0.3,2.5-1C272.9,71.8,273.3,70.9,273.3,69.9z"/>
	<path class="st0" d="M280.6,77V53.8h5.4c1.5,0,2.7,0.5,3.8,1.6s1.6,2.3,1.6,3.8c0,1.4-0.5,2.7-1.5,3.7c1.1,0.3,2,0.9,2.9,1.8
		c1.4,1.4,2.1,3.1,2.1,5.1c0,2-0.7,3.7-2.1,5.1c-1.4,1.4-3.1,2.1-5.1,2.1H280.6z M284.1,61.3h1.8c0.5,0,0.9-0.2,1.3-0.6
		c0.4-0.4,0.5-0.9,0.5-1.4c0-0.5-0.2-1-0.5-1.4c-0.4-0.4-0.8-0.6-1.3-0.6h-1.8V61.3z M284.1,65.6v5.3v2.6h3.5c1,0,1.9-0.4,2.6-1.2
		s1.1-1.7,1.1-2.8c0-1.1-0.4-2-1.1-2.8c-0.7-0.8-1.6-1.2-2.6-1.2H284.1z"/>
</g>
</svg>
